<svg width="25" height="30" viewBox="0 0 25 30" fill="none" xmlns="http://www.w3.org/2000/svg">
<g clip-path="url(#clip0)">
<path fill-rule="evenodd" clip-rule="evenodd" d="M12.5184 9.2937C11.8374 10.3378 12.2097 11.3456 12.818 11.8632C13.4172 12.3807 14.534 12.6077 15.4419 11.6997C15.8323 12.7075 15.6144 14.3237 14.4069 15.3678C13.163 16.4392 11.3562 16.4937 10.0397 15.504C8.75041 14.5325 8.30553 12.7711 8.9774 11.3093C9.74007 9.63872 11.4198 9.12119 12.5184 9.2937Z" fill="#383C3E"/>
<path fill-rule="evenodd" clip-rule="evenodd" d="M12.1462 7.37795C9.13185 7.36888 6.78029 9.81123 6.79844 12.7348C6.78029 15.6765 9.18632 18.0826 12.1371 18.0826C15.097 18.0826 17.503 15.731 17.494 12.7348C17.503 9.74767 15.1606 7.38703 12.1462 7.37795ZM14.4161 15.3678C13.1722 16.4392 11.3654 16.4937 10.0489 15.504C8.75959 14.5325 8.3147 12.7711 8.98658 11.3093C9.74017 9.6478 11.4289 9.13028 12.5275 9.29371C11.8466 10.3378 12.2188 11.3456 12.8272 11.8632C13.4264 12.3807 14.5432 12.6077 15.4511 11.6997C15.8415 12.7076 15.6236 14.3328 14.4161 15.3678Z" fill="white"/>
<path fill-rule="evenodd" clip-rule="evenodd" d="M18.6107 6.24284C17.0036 4.62671 15.0334 3.71877 12.7545 3.58258C10.0125 3.41915 7.63369 4.29077 5.67254 6.2156C4.02918 7.84989 3.12124 9.83827 2.98505 12.1354C2.82162 14.8501 3.69324 17.2198 5.60899 19.1628C7.39763 20.9787 9.59484 21.8775 12.0281 21.8957C14.5703 21.8866 16.6768 21.0513 18.4382 19.3989C20.1996 17.7373 21.1711 15.6763 21.2982 13.2521C21.4344 10.5374 20.5446 8.17675 18.6107 6.24284ZM12.1461 18.0824C9.19534 18.0824 6.78931 15.6763 6.80747 12.7346C6.78931 9.81103 9.14087 7.36868 12.1552 7.37776C15.1605 7.38684 17.5121 9.74748 17.5121 12.7346C17.5121 15.7308 15.106 18.0824 12.1461 18.0824Z" fill="#B1B6B8"/>
<path fill-rule="evenodd" clip-rule="evenodd" d="M12.4003 2.53859C6.65304 2.38424 2.0498 6.95117 1.9136 12.4624C1.76833 18.3004 6.48961 22.949 12.1098 22.9309C17.6391 22.94 22.1879 18.5183 22.3241 12.9799C22.4602 7.25079 17.9024 2.67478 12.4003 2.53859ZM21.289 13.2613C21.1619 15.6765 20.1904 17.7466 18.429 19.4081C16.6676 21.0605 14.5612 21.8868 12.019 21.9049C9.58568 21.8868 7.38847 20.9879 5.59983 19.172C3.69316 17.229 2.81246 14.8593 2.97589 12.1446C3.12116 9.83842 4.0291 7.85003 5.68155 6.22482C7.6427 4.29091 10.0215 3.41929 12.7635 3.5918C15.0424 3.72799 17.0126 4.63593 18.6197 6.25206C20.5445 8.17689 21.4343 10.5375 21.289 13.2613Z" fill="#19ACE3"/>
<path fill-rule="evenodd" clip-rule="evenodd" d="M24.0769 11.7179C23.9316 10.0927 23.4867 8.54919 22.715 7.10557C22.1521 6.04328 21.4348 5.08995 20.5813 4.23648C19.6189 3.27407 18.5203 2.49324 17.2946 1.91216C16.1143 1.34924 14.8886 0.986064 13.5902 0.840794C13.2906 0.804476 12.991 0.777238 12.6823 0.75C12.31 0.75 11.9378 0.75 11.5655 0.75C11.2659 0.777238 10.9753 0.804476 10.6757 0.840794C9.35921 0.986064 8.11534 1.34924 6.92594 1.92124C5.50955 2.60219 4.28384 3.52829 3.22155 4.69045C2.45888 5.52576 1.8324 6.44277 1.33304 7.45966C0.633925 8.89421 0.234432 10.4105 0.143638 12.0084C0.0891619 12.9799 0.161797 13.9514 0.352464 14.9048C0.715639 16.7025 1.3512 18.4003 2.15018 20.0437C2.77666 21.333 3.51209 22.5678 4.32923 23.7481C5.34612 25.2099 6.48105 26.5808 7.8248 27.7612C8.62378 28.4694 9.4954 29.0777 10.4851 29.4953C11.4384 29.8948 12.4008 29.9765 13.3814 29.6315C14.0805 29.3864 14.7251 29.0323 15.3244 28.6055C16.6954 27.6341 17.8394 26.4265 18.8744 25.1191C20.1818 23.4757 21.2804 21.7052 22.1793 19.8167C22.8784 18.3549 23.4504 16.8387 23.7954 15.2498C24.0678 14.0967 24.1858 12.9164 24.0769 11.7179ZM22.3246 12.989C22.1975 18.5184 17.6396 22.9491 12.1103 22.94C6.48105 22.9491 1.76885 18.3095 1.91412 12.4715C2.05031 6.95122 6.65356 2.38429 12.4008 2.53864C17.9029 2.67483 22.4608 7.25084 22.3246 12.989Z" fill="#333333"/>
</g>
<defs>
<clipPath id="clip0">
<rect width="23.9877" height="29.1085" fill="white" transform="translate(0.125 0.75)"/>
</clipPath>
</defs>
</svg>
